<svg xmlns="http://www.w3.org/2000/svg" viewBox="0 0 96 96" role="img" aria-label="Plant">
  <circle cx="48" cy="48" r="46" fill="#f5f5f4"/>
  <g stroke="#4a9a6a" stroke-width="2.5" fill="none" stroke-linecap="round">
    <path d="M48 82 Q46 60 48 38 Q50 24 48 16"/>
    <path d="M48 58 Q32 54 22 44"/>
    <path d="M48 48 Q66 44 76 34"/>
    <path d="M48 38 Q36 32 28 22"/>
    <path d="M48 28 Q58 22 66 12"/>
  </g>
  <g fill="#84a66a" opacity="0.85">
    <ellipse cx="22" cy="44" rx="7" ry="4" transform="rotate(-25 22 44)"/>
    <ellipse cx="76" cy="34" rx="7" ry="4" transform="rotate(25 76 34)"/>
    <ellipse cx="28" cy="22" rx="6" ry="3.5" transform="rotate(-30 28 22)"/>
    <ellipse cx="66" cy="12" rx="6" ry="3.5" transform="rotate(30 66 12)"/>
  </g>
</svg>
